<svg xmlns="http://www.w3.org/2000/svg" viewBox="0 0 334.8 334.8"><defs><style>.cls-1{fill:#f5a721;}.cls-2{fill:#fdb957;}.cls-3{fill:#4c3730;}.cls-4{fill:#7b574a;}.cls-5{fill:#d6cdc7;}</style></defs><title>Asset 1</title><g id="Layer_2" data-name="Layer 2"><g id="Layer_1-2" data-name="Layer 1"><path class="cls-1" d="M167.4,0A167.4,167.4,0,1,0,334.8,167.4,167.4,167.4,0,0,0,167.4,0ZM321.6,200.3c-4.2,1.9-10.5,1-12,5.3-.7,2.2.4,4.5.3,6.8-.2,4.5-4.8,7.3-8.1,10.4s-5.4,9.3-1.4,11.5a34,34,0,0,0,3.4,1.2c3.9,1.7,4.5,7.4,2.2,11s-6.4,5.6-10.2,7.3c2.8,6.8,1.9,16.6-5,19.1-5.2,1.8-10.9-1.5-16.3-.7-6.6.9-11.2,8.6-8.9,14.8a18.37,18.37,0,0,0-13.5,2.7c3.8,2,1.9,8.5-2,10.3s-8.5.9-12.9,1.1-9.4,2.5-9.7,6.9c-.1,1.7.6,3.4.6,5.2.1,6.5-8.5,9.2-15,8.7s-14.3-1.8-18.5,3.1c-1.4,1.6-2.3,3.8-4.3,4.5-4.4,1.5-6.6-5.2-10.3-7.9-5.3-4-12.5,1-17.4,5.5s-12.9,8.8-17.5,4c-3.2-3.3-3.9-10.3-8.4-9.8-1.3.1-2.6,1-3.9.8-2.5-.4-2.8-3.7-3.3-6.1s-4-5.7-5.6-3.8c-5.3,6.2-16.3,5.9-21.2-.6-3.5-4.6-5.1-12.2-10.9-12.5-3.9-.2-7.9,3.3-11.2,1.3-3.5-2.1-1.7-7.7-3.5-11.5-2-4.4-7.9-4.8-12.7-4.7-.7-5.1,1.1-10.2,1.5-15.3s-1.3-11.2-6.1-13c-4.1-1.5-8.7.9-11.8,4-1.4,1.4-3,3-5,2.9a5.63,5.63,0,0,1-2.9-1.4c-3-2.1-6.2-4.5-6.9-8-1-4.9,3.8-10.2,4.7-15.2,2.1-2.3-2.5-5-5.4-4s-6,3.4-8.6,1.7A30.85,30.85,0,0,1,20.1,221c-3-.8-6-1.5-9-2.3-2.8-7.9,7.9-14.2,9.1-22.5.9-6.2-4.9-12.4-11.1-12-2.5-5.5,7.6-10.6,5.6-16.3-1-2.7-4.4-4.2-4.6-7-.1-2.2,1.8-3.9,2.3-6,1.2-4.7-4.1-8.3-5.5-13-1.5-4.9,1.9-9.9,5.5-13.5s7.9-7.1,9.2-12c-2-.6-4-1.3-6-1.9,2.5-5.8,8.1-12.6,14.4-13.5-.4-6.5-.3-13.2,2.5-19.1s9-10.5,15.4-9.5c-.5-2.3-.9-4.6-1.4-6.9,5.1-1.7,10.2-3.3,15.3-5-2.3-3.7-4.7-8.2-2.7-12.1,2.8-5.4,10.8-4,16.1-1.1A6.12,6.12,0,0,0,79,48.5c4.8-.7,2-9.4,5.8-12.4,2.6-2.1,6.4-.1,9.6.8s8.1-1.5,6.4-4.4a9.26,9.26,0,0,0,12.1.5c5.1-4.3,4.1-12.7,8.2-18s12-5.7,18.5-3.9,13.3,7.6,20,8.4a10.4,10.4,0,0,0,6.2-3.6c1.2-1.5,2-3.3,3.2-4.9,4.6-5.7,14.1-4.5,19.7.2,3.8,3.2,6.8,7.7,11.5,9.4a20.85,20.85,0,0,0,3.5.4,9.49,9.49,0,0,1,18.2-.6,7.44,7.44,0,0,0,1.2,2.9c2.6,3.2,8.9-1.3,11.6,1.7,3,3.6,1,10.3,4.9,12.8,4.2,2.6,9.2-2.7,14.1-2.6,4.1.1,7.1,4,8.3,7.9s2,10.6.7,14.6c-2.4,1.9,0,6.1,3,6.7s6.1-.8,9.2-1.1c7-.6,13.7,5.6,13.8,12.6,0,4.8-2.2,10.7,1.6,13.5,4.7,3.5,12.4-3,16.9.8,3,2.5,1.7,7.3.3,11s-2.4,8.6.8,10.8c.9.7,2.2,1,2.8,2,1.6,2.6-2.6,4.9-4.1,7.6s.3,6.4,2.7,8.5,5.5,3.5,7.6,5.9a10.81,10.81,0,0,1,.4,13c-1.8,2.4-4.5,4-6.1,6.5s-.7,7,2,8.2a26.31,26.31,0,0,1,14.8,24.7C327.8,193.3,325.9,198.4,321.6,200.3Z"/><path class="cls-2" d="M313.3,164c-2.7-1.3-3.6-5.7-2-8.2s4.3-4.1,6.1-6.5a10.8,10.8,0,0,0-.4-13c-2.1-2.5-5.2-3.8-7.6-5.9s-4.3-5.7-2.7-8.5,5.7-5,4.1-7.6c-.6-1-1.9-1.3-2.8-2-3.2-2.3-2.2-7.2-.8-10.8s2.7-8.4-.3-11c-4.5-3.8-12.2,2.7-16.9-.8-3.8-2.8-1.6-8.8-1.6-13.5,0-7-6.8-13.2-13.8-12.6-3.1.3-6.1,1.6-9.2,1.1s-5.5-4.8-3-6.7c1.3-4,.5-10.5-.7-14.6-1.2-3.9-4.2-7.8-8.3-7.9-5-.1-9.9,5.2-14.1,2.6-4-2.5-1.9-9.2-4.9-12.8-2.7-3.1-9,1.4-11.6-1.7a7.44,7.44,0,0,1-1.2-2.9,9.49,9.49,0,0,0-18.2.6,10.2,10.2,0,0,1-3.5-.4c-4.7-1.7-7.6-6.2-11.5-9.4-5.6-4.7-15.1-5.8-19.7-.2-1.2,1.5-2,3.3-3.2,4.9a10.12,10.12,0,0,1-6.2,3.6c-6.6-.8-13.5-6.7-20-8.4s-14.4-1.3-18.5,3.9-3.1,13.7-8.2,18a9.39,9.39,0,0,1-12.1-.5c1.7,2.9-3.2,5.4-6.4,4.4s-7-2.9-9.6-.8c-3.8,3-1,11.7-5.8,12.4a5.76,5.76,0,0,1-3.8-1.2c-5.3-2.9-13.4-4.3-16.1,1.1-2,3.8.4,8.4,2.7,12.1-5.1,1.7-10.2,3.3-15.3,5,.5,2.3.9,4.6,1.4,6.9-6.4-1-12.6,3.7-15.4,9.5s-2.8,12.6-2.5,19.1c-6.3.9-11.9,7.7-14.4,13.5,2,.6,4,1.3,6,1.9-1.3,5-5.5,8.4-9.2,12s-6.9,8.6-5.5,13.5c1.4,4.6,6.8,8.3,5.5,13-.6,2.1-2.5,3.8-2.3,6,.2,2.8,3.6,4.3,4.6,7,2,5.7-8.1,10.8-5.6,16.3,6.2-.5,12,5.8,11.1,12C18.7,204.8,8,211.1,10.8,219c3,.8,6,1.5,9,2.3a28.78,28.78,0,0,0,3.8,14.9c2.6,1.7,5.7-.6,8.6-1.7s7.4,1.7,5.4,4c-.8,5-5.7,10.3-4.7,15.2.7,3.6,4,6,6.9,8a6.53,6.53,0,0,0,2.9,1.4c2,.2,3.5-1.5,5-2.9,3.1-3.1,7.7-5.4,11.8-4,4.8,1.7,6.5,7.8,6.1,13s-2.2,10.2-1.5,15.3c4.8-.2,10.7.3,12.7,4.7,1.7,3.8-.1,9.3,3.5,11.5,3.3,2,7.3-1.5,11.2-1.3,5.8.3,7.4,7.9,10.9,12.5,4.9,6.5,16,6.8,21.2.6,1.6-1.9,5.1,1.3,5.6,3.8s.9,5.7,3.3,6.1c1.3.2,2.6-.7,3.9-.8,4.6-.4,5.3,6.5,8.4,9.8,4.6,4.8,12.6.5,17.5-4s12.1-9.5,17.4-5.5c3.7,2.8,5.9,9.4,10.3,7.9,2-.7,2.9-2.9,4.3-4.5,4.3-4.9,12-3.7,18.5-3.1s15.1-2.2,15-8.7c0-1.7-.8-3.4-.6-5.2.3-4.3,5.3-6.7,9.7-6.9s8.9.7,12.9-1.1,5.9-8.3,2-10.3a18.37,18.37,0,0,1,13.5-2.7c-2.3-6.2,2.4-14,8.9-14.8,5.4-.7,11.1,2.6,16.3.7,7-2.5,7.8-12.3,5-19.1,3.9-1.8,7.9-3.7,10.2-7.3s1.7-9.3-2.2-11c-1.1-.5-2.3-.6-3.4-1.2-3.9-2.2-1.9-8.5,1.4-11.5s7.9-5.8,8.1-10.4c.1-2.3-1-4.7-.3-6.8,1.5-4.3,7.8-3.5,12-5.3s6.2-6.9,6.5-11.6A25.88,25.88,0,0,0,313.3,164Z"/><path class="cls-3" d="M304.6,176c-7.7,1.1-14.5,5.1-20.9,2.4-.1-.8-.1-1.6-.2-2.4-.1-1.6-.3-3.1-.5-4.7,7.9-3.1,14.2-9.5,16-18.5.3-1.6-2-2.8-2.8-1.2A21.72,21.72,0,0,1,281.7,163c-.8-4.2-1.8-8.3-2.9-12.4a26.28,26.28,0,0,0,6.9-3,25.69,25.69,0,0,0,5.7-5.7c4.1-5,9.5-2.4,13.4,1.1.6.5,1.9.2,1.8-.7-.6-5.2-5.6-9.1-11-9.1a13.89,13.89,0,0,0-9.5,3.4,15.15,15.15,0,0,1-10.7,3.5c-1.4-3.7-2.9-7.4-4.6-10.9a20,20,0,0,0,8.5-4.2c1.9-1.5,2.9-4.2,3.6-6.4.2-1.2.5-2.3.7-3.5,1.2-5.7,8.1-5,11.8-4.4,1.2.2,2.2-1.5.9-2.1-5.3-2.5-10.3-3.2-15.4-.1a10.42,10.42,0,0,0-3.7,4.8c-2.7,6.7-7.1,5.7-12.5,4.5l-2.1-3.3c8.3-5.8,12.2-16.4,7.8-26.5a1.3,1.3,0,0,0-2.4.6c.9,8.4-3.8,16.1-12.2,17.1a55,55,0,0,0-8.1-7.2c.2-2.1.2-4.3.2-6.5,0-12.2,12.3-13.9,21.5-16.1,1.7-.4,1.3-2.9-.4-3-7.5-.4-15.4.7-21.8,4.9a18.18,18.18,0,0,0-6.6,8.4c-.5,1-1,4.4-1.6,7.5-3.1-1.3-6.3-2.3-9.5-3.3a33.3,33.3,0,0,0,4.7-20.9c-.2-1.6-2.6-1.4-3,0a43.18,43.18,0,0,1-6,13.3,20.18,20.18,0,0,1-4.5,4.7,61,61,0,0,1-8.2-3.8,50.47,50.47,0,0,1-6-4.3c6-10.3,17.2-15.7,27.9-22.9a1.5,1.5,0,0,0-1.5-2.6c-9,5-19.4,6-28,12a32.66,32.66,0,0,0-6.3,6c-.9-.9-1.8-1.7-2.7-2.6,4.4-13.9,21.4-23.4,16.1-40a1.12,1.12,0,0,0-2.2.3c-.1,12.6-10.3,19.1-18.5,26.9a29.89,29.89,0,0,0-4.5,5.6,57.94,57.94,0,0,0-6.4-3.6c-.6-5.5,2.4-11.3,3.5-17.3,1.2-6.3-2.5-10.3-3.3-16.2-.2-1.7-2.8-2.4-3.2-.4a16.67,16.67,0,0,0,.2,8c1.8,7.5-4.1,13.6-6.9,20a22.5,22.5,0,0,0-.8,2.4,2.92,2.92,0,0,0-.9-.2,2.77,2.77,0,0,0-.9-.1,39.14,39.14,0,0,0-4-6c-6.9-8.4-17.7-9.9-16.1-23.4a.43.43,0,0,0-.8-.2c-2.8,6.4-2.5,11.2.9,17.3,1.7,3.1,4.3,5.9,6.5,8.7.7.9,1.3,1.8,1.9,2.7a66.84,66.84,0,0,0-14.7,2.1A17.25,17.25,0,0,0,140,49c-1.9-4-4.6-7.2-7.2-10.8-4.7-6.3-2.2-13.7-.1-20.4a.7.7,0,0,0-1.3-.5c-3,5.5-6.3,11.8-5.2,18.3,1.3,7.9,7.4,16.1,4.2,24-.2.1-.3.1-.5.2-4.3-1.4-8.6-3-12.8-4.8-3.4-1.4-7-2.1-6.5-6.6.3-3.1,1-6.1.5-9.2,0-.1-.1-.1-.2,0-3.5,5.1-6.3,13.2-1.1,17.9a54.64,54.64,0,0,0,10.1,7.2c-.8.4-1.5.8-2.3,1.2a39.18,39.18,0,0,0-6-5.5c-6.2-4.6-18.7-8.1-16.7-18,.1-.5-.6-.8-.8-.4-3.3,5.3-1.2,10.4,2.4,14.9,2.5,3.2,6.2,5.4,9.2,8.1a29.76,29.76,0,0,1,4.4,5A44.94,44.94,0,0,0,81,62c-1.8-5.2-2.9-10.7-6-15.5a.67.67,0,0,0-1.2.5,140.55,140.55,0,0,1,2.5,15.6,52,52,0,0,0-15.2,5.3c-1.6.8-.2,3.1,1.4,2.4A35.43,35.43,0,0,1,77,66.8a45.31,45.31,0,0,0,2.5,8.7,38.55,38.55,0,0,0,8.2,12.2,19.23,19.23,0,0,0-1.2,2.5c-2.4-1.4-5.6-3.9-7.1-4.3a43.52,43.52,0,0,0-13-1.2,51.79,51.79,0,0,0-7.8.9,15.54,15.54,0,0,0-7.7-5.9c-.7-.3-1.2.8-.7,1.2a21.17,21.17,0,0,1,4.3,5.5,69.43,69.43,0,0,0-14.3,5.1c-1.4.7-.4,2.7,1,2.4,5.1-1,10.1-2,15.1-2.6a32,32,0,0,1,.7,3.3c.5,3.3,1.3,6.9,3.6,9.5,3.3,3.9,7.9,6,12.8,7.3a37.36,37.36,0,0,0-8.7,2.6c-6.8,3-13.3,2.3-18.5-3.7a19.18,19.18,0,0,0-4.6-4c-2.8-1.9-5.6-1.4-8.2-.1a1.09,1.09,0,0,0,.5,2c9.1-.6,10.9,13.4,19.3,15.1,6.1,1.2,12.5-1.6,18.6-2.1-1.2,1.5-2.3,2.9-3.5,4.5-8.8,4.7-17.1,10-27.6,6.5-10.2-3.4-17.4,5.4-22.7,12.9-.6.8.6,2,1.4,1.4,4.9-3.7,11.4-11.4,18.5-7.7,3.9,2,7.3,5.4,12.2,5.2a27.69,27.69,0,0,0,7.7-1.5c-.6,1.2-1.2,2.5-1.8,3.8-3.4-.7-6.8-.5-9.6,1.3a21.72,21.72,0,0,0-6.6,6.2c-5.7,7.9-11.3,9.6-20.8,7.8-.8-.2-1.4,1-.6,1.4,6.5,3.3,12.4,4.8,19.4,2.6,2.7-.9,5-3.1,7.1-4.9,2.7-2.4,5-3.4,7.3-3.4a58,58,0,0,0-1.8,14.4c-1.2.5-2.5,1.1-3.8,1.8-2.6,1.5-4.8,3.7-7.2,5.5-5.1,3.9-9.9,2.9-14.9-.7-.9-.7-1.7.7-1.1,1.4,3.7,4.7,7.4,7,13.5,6.3,5-.6,9.4-4.3,14.1-5.6a50.26,50.26,0,0,0,2.1,8.5c-2.1.2-4.3.2-6.4.6a15.43,15.43,0,0,0-9.5,5.5c-5.4,6.6-2.7,15.8-6.6,22.9a1.21,1.21,0,0,0,1,1.8c6.8.1,8.8-11.6,10.8-16.2,2.5-5.6,7.9-4.5,12.9-4.6a15.26,15.26,0,0,0,3-.3,74.51,74.51,0,0,0,5.7,6.9,17.68,17.68,0,0,1-2.2,1.6c-5.5,3.5-12.3,3.8-18.4,2.1a.77.77,0,0,0-.6,1.4,32.84,32.84,0,0,0,15.9,4.2c4.3.1,7.7-1.3,11.1-2.8a25.6,25.6,0,0,1,2,2.6,30.57,30.57,0,0,1-7,6.9c-3.8,2.5-7.9,4-11.5,6.8-6.2,4.8-10.3,11.4-10.6,19.3a.66.66,0,0,0,1.3.2c2.5-9.5,9.4-15.9,19-18.2,3.6-.9,6.9-1.2,10.2-2.9a31.1,31.1,0,0,0,3.8-2.5c1.8,4.4,3.1,9,4.7,13.5-5.9,4.4-14.9,1.6-21.4,6.2-1,.7-.4,2.6.9,2.1,6.3-2.3,12.9,1.1,19.4,1.1a13.83,13.83,0,0,0,4.9-1c1.1,2.1,2.3,4.1,3.6,6.1a4.85,4.85,0,0,0,0,1.7,8.84,8.84,0,0,0-.8,1.1,41.45,41.45,0,0,1-3.4,2.4,23.17,23.17,0,0,0-5.7,5.1c-3.5,4.5-1.8,11.3-.2,16.1a1.3,1.3,0,0,0,2.5-.7c-1.1-6.9-.2-12.8,7-15.2a56.62,56.62,0,0,0,6.6-2.4c.9,1,1.8,2,2.8,3a16.35,16.35,0,0,0-3.1,3.3c-1.8,2.6-1.7,6.3-1.1,9.2.9,4.2-.6,7.3-3.6,10.3a.73.73,0,0,0,.5,1.2c4.6-.1,7.6-2.8,9.7-6.8,1.4-2.6,1.1-6.8,3.1-8.9a4.46,4.46,0,0,1,2.5-1.1c1.1.9,2.2,1.7,3.3,2.6a13.33,13.33,0,0,0-4.5,5.6c-2.5,6.5,8.7,18.2,2.5,22.5-.5.3-.2,1.3.4,1,4.6-1.7,5.8-6.2,4.9-10.9-.5-2.6-2.3-8.8,1.7-10.2,1.8-.6,3.4-1.2,5.1-1.9a.35.35,0,0,0,.2-.1c2.4,1.2,4.9,2.3,7.4,3.3-.1,3.5-3.6,6.1-2.3,10.1a53.74,53.74,0,0,0,8.4,16.3,1.35,1.35,0,0,0,2.3-1.4,63.14,63.14,0,0,1-3.5-9.1c-1.3-4.4-.2-6.5,2-10.3.5-.9,1-1.9,1.4-2.8,1.3.4,2.6.8,3.8,1.2,2,.6,4.1,1.2,6.1,1.7a10.38,10.38,0,0,0,2.2,4.3c3.6,4.1,6.5,6.6,5.5,12.5-.8,4.5-4.2,9.5-7.4,12.6a.28.28,0,1,0,.4.4c4.7-4.2,10.7-7.1,12.8-13.5a16.34,16.34,0,0,0,1-7.6,66.87,66.87,0,0,0-2.6-6.7l3.2.3c1.5,0,3,0,4.5-.1,2.6,2.2,3.6,4.1,4.7,8.1a11.9,11.9,0,0,0,5.3,7.1c5.7,3.6,14.6-.1,20.3-1.5a.62.62,0,0,0-.2-1.2,39.31,39.31,0,0,1-10.8-.7c-5-.9-6.4-3.3-6.5-8.1a17,17,0,0,0-.8-5.1l4.8-.9,6.4-1.2a14.72,14.72,0,0,0,1,2.2,43.44,43.44,0,0,0,5.6,7.2c2.3,2.5,11.4,8.6,6.3,12.4-1.4,1-.2,3.3,1.4,2.4,4.2-2.3,5-6.4,3.8-10.7-.7-2.7-2.8-5.1-4.2-7.5-1-1.6-1.8-3.2-2.6-4.8s-1.1-2.7-.9-3.5c3.3-.8,6.5-1.6,9.7-2.5a3.7,3.7,0,0,1,.5,1.1c1.3,3.4,1.4,6.3,3.8,9.2,3.2,3.8,9.4,4.1,13.3,1.5a.76.76,0,0,0-.4-1.4,7.69,7.69,0,0,1-6.9-3.6c-1.5-2.3-.6-5.4-.9-8a15.52,15.52,0,0,0-.4-2.1,50.54,50.54,0,0,0,5.3-2.4,4.62,4.62,0,0,1,1.5.9,20.67,20.67,0,0,1,3.8,4c1.8,2.4,2.6,6,4.9,8a.81.81,0,0,0,1.3-.2c1.8-3.1-.2-7.7-1.5-10.6a26.13,26.13,0,0,0-3.5-5.9c1.1-.7,2.2-1.4,3.3-2.2a19.57,19.57,0,0,0,1.9,4.3,15.23,15.23,0,0,0,7.9,5.5c5.9,1.8,12.4-2.1,14-7.9.3-.9-1-1.4-1.5-.6-2.2,3.9-6.8,5-10.3,2.1-2.7-2.2-3.2-5.2-3.6-8.5a14.16,14.16,0,0,0-.4-2,15.93,15.93,0,0,0,1.3-1.3c10.6,9.2,28.1-13.4,37.4.3a2,2,0,0,0,3.4-2c-2.5-4.8-6.8-7-11.9-8.1a24.29,24.29,0,0,0-8.5.2c-2.4.4-11,4.9-12.3.9a.35.35,0,0,0-.1-.2c.4-.5.8-.9,1.2-1.4,2-2.4,4.1-4.8,6.1-7.3,2.3,2.4,5.2,4.1,8.6,3.8,7.5-.7,18.9-9.9,25.2-2.6,1.4,1.6,3.9-.5,2.9-2.2a12.47,12.47,0,0,0-10.7-6.5,53.9,53.9,0,0,0-8.9,1c-2.4.4-4.8,1-7.2.6a10.63,10.63,0,0,1-1.1-.9,5.93,5.93,0,0,0-.6-1.9,4.22,4.22,0,0,0,.3-1.9c2.3-3.2,4.6-6.5,6.6-9.8,5.9-.3,13-1.8,14.6,5.5.4,1.9,2.9,1.5,3.5,0,3.1-8.1-4.2-14.6-12.2-16.8a42.2,42.2,0,0,0,1.8-4.5c6.1.4,11.3-4.5,16.2,1.1,1,1.2,2.6-.1,2.4-1.4a10.54,10.54,0,0,0-6.9-8.2,18.79,18.79,0,0,0-6.7-1,7.52,7.52,0,0,1-2.3-.2c.2-1,.4-2,.5-3a49.81,49.81,0,0,0,.5-5.3c1.1.1,2.1.2,3.2.2,3.4,0,6.7-1.5,9.8-2.9,3.3-1.5,10.9-10.7,14.2-3.5.8,1.8,3.4.4,3-1.3C313.1,178.2,309.1,175.3,304.6,176ZM83.1,67A37.4,37.4,0,0,1,101,75.1a69.47,69.47,0,0,0-7,5.1,45.74,45.74,0,0,1-10.2-12A4.73,4.73,0,0,1,83.1,67ZM62.4,92.9c-.3-.8-.6-1.6-.9-2.3a70.88,70.88,0,0,1,8-.1c6,.3,10.2,6.2,15,9.1a30.05,30.05,0,0,1-.7,3.2.35.35,0,0,1-.1.2,50.26,50.26,0,0,0-7-.7C69.4,102.1,65.2,100,62.4,92.9Z"/><path class="cls-4" d="M201.4,103.7c-8.5-4.2-15.3-11-23.3-16.1-12.2-7.8-27.2-11.3-41.4-8.9s-27.4,11.2-34.4,23.9c-5.5,10-7.3,22.2-15.5,30.1-2.5,2.4-5.5,4.3-8,6.7-7.8,7.5-9.7,19.3-9.2,30.1.2,4.3.7,8.7,2.5,12.6,4.1,9.2,14.3,14.5,19,23.5,5.2,9.9,2.8,22.2,6.7,32.7,4.3,11.9,15.8,19.5,27.3,24.8,19.7,9.1,42.4,13.7,63.4,8,24.5-6.7,43.2-26.1,60.5-44.7,4.9-5.2,9.8-10.6,12.7-17,4.8-10.6,3.7-22.8,2.2-34.4-1.5-11.4-3.2-22.9-7.6-33.6s-11.5-20.6-21.6-26.1C224.4,109.5,211.9,108.8,201.4,103.7Z"/><path class="cls-5" d="M142,150.6a31.59,31.59,0,0,0-1.2,27.8,74,74,0,0,0,5,8.6c3.2,4.9,6.4,9.7,9.6,14.6,1.8,2.7,3.7,5.6,6.4,7.4a19.45,19.45,0,0,0,8.5,2.8c16.7,1.8,33.8-10,38-26.2a43,43,0,0,0,1.2-11.3c-.5-16.1-10.5-32-25.6-37.8S149.8,136.5,142,150.6Z"/><path class="cls-5" d="M127.1,106.2a15,15,0,0,0,1.4,8.4c2.6,4.7,8.3,6.4,13.5,7.7,3.4.8,7,1.7,10.2.3,3.4-1.5,5.4-5.3,5.7-9s-.8-7.4-2-10.9a15.72,15.72,0,0,0-2.9-5.6c-2.3-2.4-5.8-3-9.1-3.5-3.7-.6-7.7-1.1-11,.8C128.9,96.6,127.4,101.6,127.1,106.2Z"/><path class="cls-5" d="M108.1,125.6a12.22,12.22,0,0,0,.2,3.3c.8,2.7,4.1,4.1,6.8,3.4a8.42,8.42,0,0,0,3.2-13.9c-2.2-1.9-5.9-2.1-8-.1C108.5,120.2,108.2,123,108.1,125.6Z"/><path class="cls-5" d="M90.3,162.4a18.56,18.56,0,0,0-1.1,9.3c1.2,7.5,8.4,13.1,15.9,14.3a14.2,14.2,0,0,0,6.8-.3c6.1-2,8.8-8.8,10.7-14.9,1-3.1,2-6.8.3-9.6-1.8-3.1-5.8-3.8-9-5.4-2.6-1.3-4.8-3.2-7.5-4C99.7,149.8,92.8,155.7,90.3,162.4Z"/><path class="cls-5" d="M136.4,142a3.59,3.59,0,0,0-.7-1.8A5.23,5.23,0,0,0,134,139c-3.3-1.4-7.9-.2-9.1,3.3s2,7.4,5.6,7.2S136.9,145.6,136.4,142Z"/><path class="cls-5" d="M125.8,211.9a9.28,9.28,0,0,0,3.3,4c2.9,1.7,7,.5,9.2-2.1s2.9-6.2,2.7-9.6c-.1-3.2-1-6.6-3.6-8.5-3.7-2.7-9.5-.9-11.8,3S123.7,207.8,125.8,211.9Z"/><path class="cls-5" d="M114.8,206.8a6.46,6.46,0,0,0-2-4.4c-1.6-1.3-4.2-1-5.9.3a7.8,7.8,0,0,0-2.6,5.6c-.2,2.9,1.3,6.2,4.1,6.8a5.14,5.14,0,0,0,5.1-2.5A8.49,8.49,0,0,0,114.8,206.8Z"/><path class="cls-5" d="M150.2,222.3a19.86,19.86,0,0,0-5.8,1.5c-3.1,1.2-6.3,2.7-8.5,5.3a12.37,12.37,0,0,0-1.2,13.2,16.63,16.63,0,0,0,10.7,8.3c3.2.8,6.7.9,9.6,2.6,2.2,1.3,3.8,3.4,6.3,4,3.1.8,6.4-1.1,8.4-3.6a16.61,16.61,0,0,0,1.6-18c-2.6-4.7-7.3-7.8-11.9-10.3C156.5,223.6,153.4,222.2,150.2,222.3Z"/><path class="cls-5" d="M191.5,226.8a7,7,0,0,0-2.7-8.8,8.66,8.66,0,0,0-9.5.7,8.29,8.29,0,0,0,2.3,10.2C184.8,231.1,189.8,230.2,191.5,226.8Z"/><path class="cls-5" d="M119.9,226.4c-4-2-9,1.8-9.7,6.2s1.8,8.7,4.9,12c1.9,1.1,4.5-.2,5.6-2.1s1.1-4.3,1.1-6.5C121.7,232.7,121.7,229.2,119.9,226.4Z"/><path class="cls-5" d="M211.4,240c5.4.3,10.7-2.3,14.5-6.2a35.37,35.37,0,0,0,7.9-14,18.59,18.59,0,0,0,1.1-5.7,10.8,10.8,0,0,0-8-10.2c-4.7-1.2-9.7,1-12.9,4.6s-5,8.2-6.1,12.9a74.37,74.37,0,0,0-1.8,11.5c-.1,1.9-.1,4.1,1.2,5.5A5.58,5.58,0,0,0,211.4,240Z"/><path class="cls-5" d="M238.6,161.1a8.63,8.63,0,0,0-5.5.3c-4.3,1.7-6.3,6.8-6.9,11.4a37.48,37.48,0,0,0-.1,8.2c.3,3.2,1.3,6.7,3.9,8.5,2,1.4,4.5,1.7,7,1.9a7.38,7.38,0,0,0,3.9-.4,5.82,5.82,0,0,0,2.3-3c2.3-4.7,4.3-9.7,4-14.9S243.6,162.4,238.6,161.1Z"/><path class="cls-5" d="M223.8,151.4a30.72,30.72,0,0,0-4.2-20.8,24,24,0,0,0-17.9-11c-2.1-.2-4.7.2-5.7,2.2a5.75,5.75,0,0,0-.5,2.6c-.3,14.2,11.6,27.6,25.7,29a2.52,2.52,0,0,0,1.9-.3A2.84,2.84,0,0,0,223.8,151.4Z"/><path class="cls-5" d="M244.7,145.5a16.12,16.12,0,0,0-2.4-9.8c-.8-1.3-2.1-2.7-3.7-2.7-2.3,0-3.6,2.7-4.2,4.9-.9,3.2-1.5,6.6-.1,9.6s5.4,4.9,8,3C243.9,149.5,244.5,147.4,244.7,145.5Z"/><path class="cls-5" d="M173.3,113.3c-2,1.4-2.4,4.1-2.6,6.5-.1,1.4-.2,2.9.7,3.9a4.35,4.35,0,0,0,1.6,1c3,1.2,6.4,1.7,9.3.3s4.9-4.9,3.8-7.9c-1.1-2.7-4.2-4-7.1-4.6C177.1,112.3,174.9,112.2,173.3,113.3Z"/><path class="cls-5" d="M178.1,100.1c-.4-2-2.5-3.3-4.6-3.6s-4.1.2-6.1.4a8.6,8.6,0,0,0-.6,7.8c2.4.7,4.9,1.3,7.3.7S178.7,102.5,178.1,100.1Z"/></g></g></svg>