<?xml version="1.0" encoding="utf-8"?>
<!-- Svg Vector Icons : http://www.onlinewebfonts.com/icon -->
<!DOCTYPE svg PUBLIC "-//W3C//DTD SVG 1.1//EN" "http://www.w3.org/Graphics/SVG/1.1/DTD/svg11.dtd">
<svg version="1.1" xmlns="http://www.w3.org/2000/svg" xmlns:xlink="http://www.w3.org/1999/xlink" x="0px" y="0px" viewBox="0 0 1000 1000" enable-background="new 0 0 1000 1000" xml:space="preserve">
<g><g transform="translate(0.000000,389.000000) scale(0.100000,-0.100000)"><path fill="#FFFFFF" d="M2975.9,2595.5c-365.6-51.7-461.4-231.6-262.3-482.4c40.2-49.8,130.2-162.7,202.9-248.9c70.8-86.1,128.3-166.6,128.3-178c0-9.6-101.5-74.7-224-143.6c-637.5-354.2-1320.9-876.8-1713.3-1307.5c-647-714.1-972.5-1414.7-1005-2176.6c-44-1008.9,499.6-1950.7,1546.8-2672.4c243.1-168.5,361.8-227.8,425-210.6c67,15.3,109.1,99.6,109.1,216.3c0,124.4,45.9,312,107.2,428.8c68.9,135.9,174.2,245,428.8,438.4c358,273.8,549.4,493.9,691.1,790.6c65.1,139.8,72.7,245,17.2,300.6c-55.5,55.5-128.3,47.9-346.5-38.3c-405.8-162.7-754.2-222.1-1200.3-204.8c-336.9,11.5-530.3,55.5-779.1,176.1c-225.9,109.1-354.2,224-434.6,386.7c-181.9,371.4,30.6,819.3,557.1,1169.6c90,59.3,220.2,134,285.2,166.5c113,51.7,124.4,53.6,172.3,26.8c38.3-21,53.6-45.9,57.4-93.8c1.9-36.4-1.9-76.6-9.6-86.1c-9.6-11.5-99.5-67-201-122.5c-409.7-225.9-643.2-492-662.4-756.2l-9.6-114.9l82.3,68.9c262.3,225.9,716,348.4,1378.3,373.3c411.6,15.3,681.5-13.4,1139-116.8c342.7-78.5,591.5-126.3,798.3-155.1l88.1-11.5l-86.2-183.8c-47.9-101.5-91.9-220.1-97.6-264.2c-26.8-245,227.8-331.2,599.2-201c310.1,109.1,754.2,340.7,1150.5,595.4c149.3,97.6,197.2,118.7,325.4,139.7c1049.1,185.7,1933.5,560.9,2622.6,1116c390.5,315.9,765.7,754.2,957.2,1121.8l86.1,168.5l-134,158.9c-729.3,857.6-1835.8,1393.6-3170.1,1533.4c-304.4,32.5-943.8,42.1-1263.5,19.1c-185.7-13.4-195.3-11.5-321.6,45.9c-279.5,126.4-683.4,239.3-1066.3,298.6C3709.1,2603.2,3142.4,2620.4,2975.9,2595.5z M5209.9,1487.1c42.1-34.5,44-38.3,38.3-425c-9.6-790.6,88.1-1468.3,266.1-1849.2c74.6-160.8,206.7-298.6,358-373.3c153.1-74.6,191.4-124.4,155-201c-42.1-90-103.4-95.7-254.6-22.9c-157,76.6-358,264.2-438.4,409.6c-130.2,233.5-248.9,714-300.6,1215.6c-26.8,243.1-34.5,1110.3-13.4,1188.8c13.4,46,70.8,90,122.5,91.9C5156.3,1523.5,5185,1508.2,5209.9,1487.1z M7633.4,983.7c86.2-51.7,147.4-185.7,134-294.8c-24.9-220.1-298.6-350.3-472.8-222.1c-162.7,120.6-183.8,361.8-42.1,488.2C7352,1044.9,7510.9,1058.3,7633.4,983.7z"/></g></g>
</svg>