<?xml version="1.0" encoding="utf-8"?>
<!-- Svg Vector Icons : http://www.onlinewebfonts.com/icon -->
<!DOCTYPE svg PUBLIC "-//W3C//DTD SVG 1.1//EN" "http://www.w3.org/Graphics/SVG/1.1/DTD/svg11.dtd">
<svg version="1.1" xmlns="http://www.w3.org/2000/svg" xmlns:xlink="http://www.w3.org/1999/xlink" x="0px" y="0px" viewBox="0 0 1000 1000" enable-background="new 0 0 1000 1000" xml:space="preserve">
<metadata> Svg Vector Icons : http://www.onlinewebfonts.com/icon </metadata>
<g><g transform="translate(0.000000,511.000000) scale(0.100000,-0.100000)"><path fill="#FFFFFF" d="M5039.1,4985.9c-19.2-25-521.3-2683.5-521.3-2768.1c0-36.6,75-186.6,232.8-469.4l55.8-100l82.7,28.9c50,17.3,115.4,25,173.1,17.3l90.4-9.6v1638.9c0,1250.4-5.8,1646.6-23.1,1664C5098.7,5018.6,5066,5016.7,5039.1,4985.9z"/><path fill="#FFFFFF" d="M4892.9,1509.9c-21.2-7.7-63.5-42.3-96.2-76.9c-51.9-53.9-57.7-71.2-57.7-192.4c0-113.5,5.8-138.5,48.1-182.8c69.3-73.1,140.4-105.8,234.7-105.8c288.5,0,394.3,386.7,146.2,538.6C5102.6,1531.1,4964.1,1540.7,4892.9,1509.9z"/><path fill="#FFFFFF" d="M5464.2,1138.7c-11.6-46.2-44.2-115.4-69.3-153.9l-48.1-71.2l42.3-26.9c23.1-15.4,263.5-152,532.9-305.8c269.3-152,894.5-507.9,1388.9-788.7c509.8-290.5,911.8-507.8,927.2-502.1c34.6,13.5,51.9,57.7,38.5,90.4c-5.8,11.6-507.9,421.3-1113.8,908c-1233,988.8-1084.9,896.4-1473.5,921.4l-205.8,11.5L5464.2,1138.7z"/><path fill="#FFFFFF" d="M3132.7,253.8C2053.6-381,1718.9-586.9,1718.9-613.8c0-98.1,23.1-90.4,1381.2,442.4l1319.6,517.5l175.1,246.2l177,246.2l-76.9,82.7c-42.3,46.2-82.7,102-90.4,125c-5.8,21.2-23.1,40.4-34.6,38.5C4556.2,1084.8,3909.9,709.7,3132.7,253.8z"/><path fill="#FFFFFF" d="M5142.9,803.9c-50-19.2-111.6-25-177-17.3c-100,11.5-102,11.5-152-63.5l-50-76.9L4650.5-1264c-61.5-1050.3-132.7-2252.6-157.7-2670c-25-417.4-44.2-761.7-42.3-763.7c1.9-3.9,71.2-25,155.8-46.2c223.1-61.6,611.7-61.6,827.1,0l155.8,42.3l-7.7,100c-19.2,257.8-313.5,5315-313.5,5372.7C5268,844.3,5258.4,846.3,5142.9,803.9z"/></g></g>
</svg>